<svg class="css-ze2te4 css-qd6ojx" viewBox="0 0 140 133.6928493057016" xmlns="http://www.w3.org/2000/svg">
  <g transform="translate(-9.99995112421459, -13.162800949668432) scale(4.999997615815346)" class="css-40aco" fill="#10b981">
    <g data-name="Layer 28">
      <path d="M28.62,3.11a3,3,0,0,0-2.88-.2l-9.32,4.3a1,1,0,0,1-.84,0L6.26,2.91A3,3,0,0,0,2,5.64v16.5a3,3,0,0,0,1.92,2.79l11,4.24a3,3,0,0,0,2.16,0l11-4.24A3,3,0,0,0,30,22.14V5.64A3,3,0,0,0,28.62,3.11Zm-24,20A1,1,0,0,1,4,22.14V5.64a1,1,0,0,1,.46-.85A1.06,1.06,0,0,1,5,4.63a1.07,1.07,0,0,1,.42.1L14.74,9l.26.09V27.05ZM28,22.14a1,1,0,0,1-.64.93L17,27.05V9.12L17.26,9l9.32-4.3a1,1,0,0,1,1,.06,1,1,0,0,1,.46.85ZM26.1,7.36a2,2,0,0,0-1.89-.17l-5,2.14A2,2,0,0,0,18,11.17V13a2,2,0,0,0,.9,1.67A2,2,0,0,0,20,15a2,2,0,0,0,.79-.16l5-2.14A2,2,0,0,0,27,10.85V9A2,2,0,0,0,26.1,7.36ZM25,10.85,20,13V11.17L25,9Zm1.1,3.51a2,2,0,0,0-1.89-.17l-5,2.14A2,2,0,0,0,18,18.17V23a2,2,0,0,0,.9,1.67A2,2,0,0,0,20,25a2,2,0,0,0,.79-.16l5-2.14A2,2,0,0,0,27,20.85V16A2,2,0,0,0,26.1,14.36ZM25,20.85,20,23V18.17L25,16Zm-11.08-9a1,1,0,0,1-.92.61,1,1,0,0,1-.39-.08l-7-3a1,1,0,0,1,.78-1.84l7,3A1,1,0,0,1,13.92,11.9Zm0,4a1,1,0,0,1-.92.61,1,1,0,0,1-.39-.08l-7-3a1,1,0,0,1,.78-1.84l7,3A1,1,0,0,1,13.92,15.9Zm0,4a1,1,0,0,1-.92.61,1,1,0,0,1-.39-.08l-7-3a1,1,0,0,1,.78-1.84l7,3A1,1,0,0,1,13.92,19.9Zm0,4a1,1,0,0,1-.92.61,1,1,0,0,1-.39-.08l-7-3a1,1,0,0,1,.78-1.84l7,3A1,1,0,0,1,13.92,23.9Z"></path>
    </g>
  </g>
</svg>

