<?xml version="1.0" standalone="no"?>
<!DOCTYPE svg PUBLIC "-//W3C//DTD SVG 20010904//EN"
 "http://www.w3.org/TR/2001/REC-SVG-20010904/DTD/svg10.dtd">
<svg version="1.0" xmlns="http://www.w3.org/2000/svg"
 width="180.000000pt" height="180.000000pt" viewBox="0 0 180.000000 180.000000"
 preserveAspectRatio="xMidYMid meet">
<g transform="translate(0.000000,180.000000) scale(0.100000,-0.100000)"
fill="#34d399" stroke="none">
<path d="M83 1769 c-40 -26 -76 -81 -71 -111 3 -21 5 -20 22 12 10 19 25 39
33 43 7 5 10 13 7 19 -4 6 -3 8 4 4 6 -3 17 1 25 9 9 8 20 15 25 15 5 0 15 7
22 15 19 23 -28 19 -67 -6z"/>
<path d="M1645 1780 c3 -5 14 -10 23 -10 15 0 15 -2 2 -11 -12 -9 -11 -10 7
-6 14 3 21 0 20 -7 -1 -6 3 -10 8 -9 6 1 26 -21 45 -49 30 -44 35 -48 38 -29
5 32 -40 95 -81 114 -39 19 -71 22 -62 7z"/>
<path d="M1126 1429 c-20 -17 -33 -35 -30 -40 3 -5 0 -9 -5 -9 -6 0 -11 -6
-11 -12 0 -7 -12 -38 -26 -68 -68 -141 -108 -252 -131 -365 -16 -77 -16 -77
-27 -152 -7 -49 -45 -118 -59 -108 -4 3 -5 2 -2 -2 8 -10 -16 -33 -29 -26 -6
3 -8 3 -4 -1 8 -9 -54 -66 -64 -60 -5 3 -8 56 -8 118 0 89 4 123 18 155 15 32
21 38 31 28 11 -10 11 -8 2 11 -6 12 -8 22 -3 22 6 0 12 11 14 25 3 15 1 22
-5 18 -6 -4 -8 2 -5 15 4 13 0 23 -9 26 -8 3 -11 10 -8 16 3 6 0 17 -9 25 -11
11 -16 12 -19 2 -4 -8 -6 -6 -6 4 -2 28 -62 53 -107 44 -21 -4 -72 -7 -113 -6
-83 1 -200 -24 -217 -47 -7 -9 -16 -12 -24 -7 -8 5 -11 4 -6 -3 3 -6 -3 -14
-15 -17 -27 -9 -124 -108 -145 -149 -47 -92 -58 -140 -58 -251 -1 -90 2 -116
18 -145 25 -46 63 -82 111 -105 53 -26 184 -27 234 -2 18 9 39 14 45 10 6 -3
8 -3 4 2 -4 4 9 18 29 32 l36 24 29 -35 c18 -22 34 -33 43 -29 8 3 15 0 15 -6
0 -31 152 9 225 59 l45 31 19 -45 c11 -24 29 -49 40 -55 28 -16 87 -13 104 4
8 8 17 11 21 8 9 -9 56 37 69 67 6 14 12 72 13 130 3 134 4 142 21 159 8 7 12
20 9 28 -3 8 -1 11 4 8 6 -3 10 -1 10 5 0 22 55 89 80 99 52 19 55 19 56 -5 1
-13 -2 -21 -7 -18 -5 3 -5 -6 1 -20 5 -15 5 -26 0 -28 -6 -2 -12 -21 -14 -43
-3 -22 -8 -51 -11 -65 -6 -25 -7 -174 -2 -218 2 -13 9 -27 16 -32 8 -4 10 -13
7 -19 -4 -6 -1 -11 8 -11 8 0 21 -9 29 -20 31 -45 122 -34 232 28 33 18 65 38
71 43 6 5 14 7 17 4 4 -3 5 -2 2 1 -2 4 11 24 29 45 33 39 66 121 66 164 0 12
-7 28 -15 35 -8 7 -12 17 -8 23 3 5 1 7 -5 3 -6 -3 -13 -2 -17 4 -10 16 -54
-12 -110 -70 -27 -28 -57 -56 -66 -61 -15 -7 -16 -4 -8 29 30 124 39 186 39
255 0 66 -4 83 -25 118 -14 22 -37 45 -50 51 -14 6 -25 14 -25 17 0 21 -190
19 -220 -2 -29 -20 -57 -12 -34 10 8 9 18 28 21 44 3 16 9 29 12 29 4 0 15 23
25 50 23 65 19 159 -10 191 -10 12 -13 19 -7 15 23 -13 4 19 -20 33 -43 27
-83 24 -121 -10z m101 -11 c29 -34 46 -82 45 -136 -1 -36 -14 -74 -61 -167
-33 -66 -63 -136 -66 -155 l-7 -35 40 46 c56 63 127 93 203 86 72 -6 126 -32
150 -71 28 -46 25 -165 -6 -286 -29 -112 -32 -160 -10 -160 9 0 56 39 105 86
98 95 120 101 120 37 0 -49 -39 -130 -81 -170 -46 -43 -189 -113 -231 -113
-66 0 -104 49 -114 148 -5 44 1 95 22 202 l28 143 -23 18 c-13 11 -31 19 -40
19 -49 0 -125 -84 -164 -184 -17 -41 -21 -75 -21 -169 l-1 -119 -32 -28 c-44
-39 -106 -58 -129 -39 -25 21 -44 73 -44 120 l0 41 -43 -44 c-83 -85 -215
-131 -271 -94 -14 9 -33 37 -43 65 l-17 50 -22 -33 c-88 -129 -329 -140 -408
-18 -39 59 -49 112 -37 197 25 180 116 310 261 374 60 26 154 36 208 22 40
-11 44 -10 61 10 16 20 21 21 54 10 45 -15 95 -63 104 -99 4 -19 -2 -43 -25
-87 -26 -50 -32 -75 -36 -150 -5 -87 4 -178 18 -192 10 -11 47 15 129 90 l74
68 7 69 c15 151 81 364 172 557 55 115 88 138 131 91z"/>
<path d="M480 934 c-30 -14 -69 -36 -87 -50 -90 -69 -149 -237 -110 -314 42
-84 172 -41 225 74 14 29 21 73 25 151 3 61 10 122 16 138 14 35 3 35 -69 1z
m24 -39 c2 -6 0 -59 -4 -117 -7 -94 -11 -111 -37 -150 -17 -24 -37 -42 -46
-42 -9 1 -14 -2 -11 -7 5 -9 -28 -18 -58 -17 -10 1 -26 10 -35 21 -13 15 -14
18 -3 12 13 -8 13 -6 1 8 -14 18 -9 87 11 136 6 14 10 32 9 39 -1 7 4 11 10
10 7 -2 17 6 23 18 13 24 46 59 46 48 0 -4 8 3 19 14 10 12 23 22 30 22 6 0
11 4 11 8 0 13 29 10 34 -3z"/>
<path d="M1776 155 c-5 -11 -10 -24 -11 -30 0 -5 -7 -9 -14 -7 -7 1 -10 -2 -6
-8 8 -13 -14 -42 -26 -34 -5 3 -6 -3 -2 -12 5 -13 2 -16 -9 -12 -8 4 -28 -4
-44 -18 -29 -23 -29 -23 -5 -24 58 -1 136 82 129 137 -3 26 -4 26 -12 8z"/>
<path d="M14 129 c8 -44 40 -84 81 -103 62 -30 73 -14 16 21 -33 21 -50 37
-45 45 4 7 3 8 -4 4 -7 -4 -17 7 -26 29 -18 43 -31 46 -22 4z"/>
</g>
</svg>
